<?xml version="1.0" encoding="iso-8859-1"?>
<!-- Uploaded to: SVG Repo, www.svgrepo.com, Generator: SVG Repo Mixer Tools -->
<svg fill="#000000" height="800px" width="800px" version="1.1" id="Layer_1" xmlns="http://www.w3.org/2000/svg" xmlns:xlink="http://www.w3.org/1999/xlink" 
	 viewBox="0 0 512 512" xml:space="preserve">
<g>
	<g>
		<path d="M431.26,185.717c-0.024-0.039-0.05-0.076-0.074-0.114c-12.212-18.219-25.826-35.277-40.466-50.698
			c-2.98-3.14-7.941-3.267-11.079-0.288c-3.14,2.98-3.268,7.94-0.288,11.079c14.014,14.764,27.057,31.103,38.766,48.565
			c1.642,2.619,0.891,8.287-2.558,11.735c-1.241,1.241-2.601,1.905-3.623,1.807c-0.219-0.023-0.887-0.095-1.585-1.177
			c-0.024-0.039-0.05-0.076-0.075-0.114c-28.308-42.233-62.598-76.523-104.829-104.83c-0.038-0.025-0.076-0.051-0.114-0.076
			c-1.083-0.697-1.154-1.365-1.177-1.584c-0.11-1.027,0.566-2.381,1.807-3.623c3.448-3.451,9.119-4.2,11.736-2.558
			c13.668,9.167,26.678,19.168,38.673,29.724c3.247,2.858,8.2,2.545,11.06-0.705c2.859-3.248,2.544-8.2-0.705-11.06
			c-12.527-11.028-26.111-21.466-40.374-31.026c-0.038-0.025-0.076-0.051-0.114-0.076c-9.116-5.879-22.888-3.854-31.361,4.618
			c-4.626,4.627-6.925,10.592-6.309,16.367c0.572,5.35,3.483,9.982,8.201,13.051c40.462,27.131,73.323,59.993,100.454,100.455
			c3.069,4.718,7.701,7.629,13.051,8.198c0.616,0.066,1.235,0.098,1.853,0.098c5.181,0,10.382-2.277,14.514-6.407
			C435.113,208.607,437.141,194.832,431.26,185.717z"/>
	</g>
</g>
<g>
	<g>
		<path d="M379.994,243.78c-0.023-0.036-0.048-0.071-0.072-0.108c-30.615-44.504-67.133-81.022-111.639-111.639
			c-0.035-0.024-0.07-0.049-0.107-0.072c-9.472-6.29-23.55-4.552-32.054,3.952c-4.491,4.492-6.736,10.371-6.161,16.129
			c0.552,5.525,3.678,10.568,8.578,13.845c42.863,29.493,78.038,64.669,107.53,107.529c3.278,4.899,8.319,8.026,13.845,8.578
			c0.593,0.06,1.189,0.089,1.784,0.089c5.171,0,10.315-2.221,14.344-6.249C384.545,267.33,386.282,253.251,379.994,243.78z
			 M364.959,264.75c-1.154,1.154-2.423,1.761-3.485,1.648c-1.108-0.11-1.908-0.991-2.387-1.712
			c-0.023-0.036-0.048-0.071-0.072-0.108c-30.615-44.505-67.133-81.022-111.639-111.638c-0.036-0.024-0.071-0.049-0.108-0.072
			c-0.72-0.479-1.601-1.28-1.712-2.388c-0.107-1.062,0.494-2.331,1.648-3.485c2.022-2.023,5.117-3.142,7.94-3.142
			c1.612,0,3.136,0.366,4.32,1.136c42.85,29.489,78.014,64.653,107.5,107.502C369.084,255.748,368.136,261.573,364.959,264.75z"/>
	</g>
</g>
<g>
	<g>
		<path d="M329.588,302.701c-0.022-0.033-0.046-0.066-0.068-0.099c-33.503-47.359-72.81-86.665-120.166-120.165
			c-0.032-0.022-0.066-0.046-0.098-0.068c-9.911-6.787-24.364-5.412-32.906,3.129c-4.4,4.401-6.526,10.022-5.987,15.827
			c0.542,5.837,3.849,11.244,9.077,14.845c45.85,32.443,83.906,70.499,116.348,116.348c3.6,5.228,9.006,8.534,14.843,9.076
			c0.591,0.055,1.181,0.083,1.767,0.083c5.17,0,10.107-2.118,14.059-6.071C334.998,327.066,336.374,312.612,329.588,302.701z
			 M315.374,324.522c-0.739,0.74-1.917,1.594-3.295,1.465c-1.218-0.113-2.424-0.958-3.398-2.378
			c-0.022-0.033-0.046-0.066-0.068-0.099c-33.503-47.357-72.808-86.663-120.166-120.166c-0.032-0.022-0.066-0.046-0.099-0.068
			c-1.421-0.974-2.266-2.181-2.379-3.399c-0.129-1.385,0.725-2.556,1.465-3.295c1.84-1.841,4.708-2.815,7.501-2.815
			c1.978,0,3.918,0.49,5.425,1.507c45.836,32.434,83.888,70.486,116.323,116.322C319.138,315.232,318.519,321.378,315.374,324.522z"
			/>
	</g>
</g>
<g>
	<g>
		<path d="M270.638,353.138c-0.023-0.036-0.048-0.071-0.072-0.108c-30.614-44.505-67.133-81.023-111.639-111.639
			c-0.036-0.024-0.071-0.049-0.108-0.072c-9.47-6.29-23.55-4.552-32.053,3.952c-4.492,4.491-6.736,10.369-6.161,16.127
			c0.552,5.525,3.678,10.568,8.578,13.846c42.863,29.495,78.037,64.668,107.528,107.528c3.277,4.902,8.319,8.027,13.845,8.58
			c0.595,0.06,1.19,0.089,1.785,0.089c5.172,0,10.316-2.223,14.345-6.25C275.19,376.687,276.926,362.608,270.638,353.138z
			 M255.602,374.107c-1.154,1.155-2.423,1.754-3.486,1.649c-1.108-0.111-1.909-0.992-2.387-1.712
			c-0.023-0.036-0.048-0.071-0.072-0.108c-30.614-44.503-67.132-81.021-111.638-111.638c-0.036-0.024-0.071-0.049-0.108-0.072
			c-0.72-0.479-1.601-1.28-1.712-2.388c-0.107-1.062,0.494-2.331,1.647-3.485c2.023-2.023,5.117-3.141,7.941-3.141
			c1.612,0,3.136,0.366,4.32,1.136c42.85,29.488,78.013,64.651,107.5,107.501C259.727,365.105,258.779,370.93,255.602,374.107z"/>
	</g>
</g>
<g>
	<g>
		<path d="M212.546,404.432c-0.024-0.038-0.049-0.076-0.074-0.114c-28.308-42.233-62.598-76.522-104.831-104.831
			c-0.038-0.025-0.076-0.051-0.114-0.076c-9.116-5.88-22.887-3.853-31.361,4.617c-4.626,4.627-6.926,10.592-6.309,16.368
			c0.57,5.35,3.481,9.982,8.198,13.051c40.462,27.129,73.326,59.993,100.458,100.456c3.069,4.717,7.7,7.628,13.049,8.198
			c0.618,0.066,1.235,0.098,1.854,0.098c5.181,0,10.382-2.277,14.514-6.408C216.398,427.324,218.428,413.549,212.546,404.432z
			 M196.845,424.707c-1.241,1.241-2.599,1.929-3.624,1.808c-0.218-0.023-0.886-0.094-1.584-1.177
			c-0.024-0.038-0.05-0.076-0.075-0.114c-28.308-42.234-62.599-76.523-104.83-104.83c-0.038-0.024-0.075-0.05-0.114-0.074
			c-1.081-0.698-1.154-1.366-1.177-1.585c-0.109-1.027,0.566-2.382,1.807-3.624c2.29-2.289,5.56-3.391,8.265-3.391
			c1.369,0,2.592,0.282,3.472,0.834c40.446,27.125,73.295,59.975,100.418,100.419C201.044,415.591,200.294,421.259,196.845,424.707z
			"/>
	</g>
</g>
<g>
	<g>
		<path d="M399.673,0c-21.105,0-41.68,5.895-59.502,17.048c-31.295,18.983-62.594,41.091-93.025,65.712
			c-3.366,2.722-3.886,7.657-1.164,11.022c2.722,3.365,7.657,3.887,11.022,1.164c29.903-24.191,60.635-45.901,91.347-64.527
			c0.031-0.02,0.065-0.04,0.096-0.061c15.335-9.607,33.049-14.684,51.226-14.684c53.295,0,96.653,43.358,96.653,96.653
			c0,18.971-5.498,37.338-15.9,53.118c-0.05,0.075-0.098,0.152-0.145,0.228C366.685,351.619,186.127,465.555,178.496,470.314
			c-0.401,0.25-0.778,0.536-1.128,0.854c-17.823,16.224-40.921,25.159-65.041,25.159c-53.295,0-96.653-43.358-96.653-96.653
			c0-24.017,8.869-47.043,24.974-64.836c0.403-0.445,0.75-0.932,1.037-1.448c4.072-6.498,73.304-115.552,188.985-216.326
			c3.263-2.843,3.604-7.793,0.762-11.057c-2.844-3.264-7.795-3.604-11.057-0.762C104.294,206.367,34.098,316.025,28.514,324.89
			C10.121,345.491,0,372.016,0,399.673C0,461.61,50.39,512,112.327,512c27.793,0,54.42-10.21,75.063-28.763
			c13.836-8.715,192.793-123.715,306.197-309.278C505.633,155.635,512,134.328,512,112.327C512,50.39,461.61,0,399.673,0z"/>
	</g>
</g>
</svg>