<svg width="32" height="32" viewBox="0 0 32 32" fill="none" xmlns="http://www.w3.org/2000/svg">
<path d="M24.8897 3.89959V3.90001H24.8537H24.8178H24.7818H24.7459H24.71H24.674H24.6381H24.6021H24.5662H24.5303H24.4943H24.4584H24.4224H24.3865H24.3505H24.3146H24.2787H24.2427H24.2068H24.1708H24.1349H24.0989H24.063H24.027H23.9911H23.9551H23.9192H23.8833H23.8473H23.8114H23.7754H23.7395H23.7035H23.6676H23.6316H23.5957H23.5597H23.5238H23.4878H23.4519H23.4159H23.38H23.344H23.3081H23.2721H23.2362H23.2002H23.1643H23.1283H23.0923H23.0564H23.0204H22.9845H22.9485H22.9126H22.8766H22.8407H22.8047H22.7688H22.7328H22.6968H22.6609H22.6249H22.589H22.553H22.5171H22.4811H22.4452H22.4092H22.3732H22.3373H22.3013H22.2654H22.2294H22.1934H22.1575H22.1215H22.0856H22.0496H22.0136H21.9777H21.9417H21.9058H21.8698H21.8338H21.7979H21.7619H21.7259H21.69H21.654H21.6181H21.5821H21.5461H21.5102H21.4742H21.4382H21.4023H21.3663H21.3303H21.2944H21.2584H21.2225H21.1865H21.1505H21.1146H21.0786H21.0426H21.0067H20.9707H20.9347H20.8988H20.8628H20.8268H20.7909H20.7549H20.7189H20.6829H20.647H20.611H20.575H20.5391H20.5031H20.4671H20.4312H20.3952H20.3592H20.3233H20.2873H20.2513H20.2153H20.1794H20.1434H20.1074H20.0715H20.0355H19.9995H19.9635H19.9276H19.8916H19.8556H19.8196H19.7837H19.7477H19.7117H19.6758H19.6398H19.6038H19.5678H19.5319H19.4959H19.4599H19.4239H19.388H19.352H19.316H19.28H19.2441H19.2081H19.1721H19.1361H19.1002H19.0642H19.0282H18.9922H18.9562H18.9203H18.8843H18.8483H18.8123H18.7764H18.7404H18.7044H18.6684H18.6325H18.5965H18.5605H18.5245H18.4885H18.4526H18.4166H18.3806H18.3446H18.3086H18.2727H18.2367H18.2007H18.1647H18.1287H18.0928H18.0568H18.0208H17.9848H17.9488H17.9129H17.8769H17.8409H17.8049H17.7689H17.733H17.697H17.661H17.625H17.589H17.5531H17.5171H17.4811H17.4451H17.4091H17.3731H17.3372H17.3012H17.2652H17.2292H17.1932H17.1572H17.1213H17.0853H17.0493H17.0133H16.9773H16.9413H16.9054H16.8694H16.8334H16.7974H16.7614H16.7254H16.6895H16.6535H16.6175H16.5815H16.5455H16.5095H16.4736H16.4376H16.4016H16.3656H16.3296H16.2936H16.2576H16.2217H16.1857H16.1497H16.1137H16.0777H16.0417H16.0058H15.9698H15.9338H15.8978H15.8618H15.8258H15.7898H15.7539H15.7179H15.6819H15.6459H15.6099H15.5739H15.5379H15.5019H15.466H15.43H15.394H15.358H15.322H15.286H15.25H15.2141H15.1781H15.1421H15.1061H15.0701H15.0341H14.9981H14.9622H14.9262H14.8902H14.8542H14.8182H14.7822H14.7462H14.7102H14.6743H14.6383H14.6023H14.5663H14.5303H14.4943H14.4583H14.4223H14.3864H14.3504H14.3144H14.2784H14.2424H14.2064H14.1704H14.1344H14.0985H14.0625H14.0265H13.9905H13.9545H13.9185H13.8825H13.8465H13.8106H13.7746H13.7386H13.7026H13.6666H13.6306H13.5946H13.5587H13.5227H13.4867H13.4507H13.4147H13.3787H13.3427H13.3067H13.2708H13.2348H13.1988H13.1628H13.1268H13.0908H13.0548H13.0188H12.9829H12.9469H12.9109H12.8749H12.8389H12.8029H12.7669H12.7309H12.695H12.659H12.623H12.587H12.551H12.515H12.479H12.4431H12.4071H12.3711H12.3351H12.2991H12.2631H12.2271H12.1911H12.1552H12.1192H12.0832H12.0472H12.0112H11.9752H11.9392H11.9033H11.8673H11.8313H11.7953H11.7593H11.7233H11.6873H11.6514H11.6154H11.5794H11.5434H11.5074H11.4714H11.4354H11.3995H11.3635H11.3275H11.2915H11.2555H11.2195H11.1836H11.1476H11.1116H11.0756H11.0396H11.0036H10.9676H10.9317H10.8957H10.8597H10.8237H10.7877H10.7517H10.7158H10.6798H10.6438H10.6078H10.5718H10.5358H10.4999H10.4639H10.4279H10.3919H10.3559H10.3199H10.284H10.248H10.212H10.176H10.14H10.104H10.0681H10.0321H9.9961H9.96012H9.92414H9.88816H9.85218H9.8162H9.78022H9.74423H9.70825H9.67227H9.63629H9.60031H9.56433H9.52835H9.49237H9.45639H9.42041H9.38443H9.34845H9.31247H9.27649H9.24051H9.20454H9.16856H9.13258H9.0966H9.06062H9.02464H8.98866H8.95269H8.91671H8.88073H8.84475H8.80877H8.7728H8.73682H8.70084H8.66487H8.62889H8.59291H8.55694H8.52096H8.48498H8.44901H8.41303H8.37705H8.34108H8.3051H8.26913H8.23315H8.19718H8.1612H8.12523H8.08925H8.05328H8.01731H7.98133H7.94536H7.90938H7.87341H7.83744H7.80146H7.76549H7.72952H7.69354H7.65757H7.6216H7.58563H7.54966H7.51368H7.47771H7.44174H7.40577H7.3698H7.33383H7.29786H7.26189H7.22592H7.18995H7.15397H7.11801H7.08204H7.04607H7.0101H6.97413H6.93816H6.90219H6.86622H6.83025H6.79429H6.75832H6.72235H6.68638H6.65042H6.61445H6.57848H6.54251H6.50655H6.4708H6.47058V4.00001C6.16315 3.99859 5.86844 4.222 5.78676 4.51839L24.8897 3.89959ZM24.8897 3.89959L24.8988 3.90042C25.1984 3.92783 25.4718 4.13541 25.5787 4.41668L25.5787 4.41668L25.5791 4.41769L28.0496 11.1343C28.0496 11.1344 28.0496 11.1344 28.0496 11.1344C28.0824 11.2229 28.0995 11.317 28.0999 11.4113V11.4118V15.2934C28.1056 15.7218 27.7226 16.11 27.2941 16.11C26.8656 16.11 26.4826 15.7218 26.4882 15.2934V12.2176M24.8897 3.89959L26.4882 12.2176M26.4882 12.2176H5.51176V26.4882H26.4882V19.6294H17.8647L17.8647 21.2941L17.8647 21.2944C17.8636 21.5903 17.6706 21.8347 17.4308 21.9668C17.1911 22.0989 16.8814 22.1315 16.6307 21.9744L16.6301 21.974L12.7478 19.5035C12.513 19.354 12.4024 19.0834 12.4024 18.8235C12.4024 18.5636 12.513 18.293 12.7478 18.1435L16.6289 15.6737C16.6291 15.6736 16.6293 15.6735 16.6295 15.6733C16.7878 15.5697 16.9826 15.5245 17.1704 15.5478L17.1704 15.5478L17.1721 15.548C17.557 15.6027 17.8682 15.9647 17.8647 16.3534M26.4882 12.2176L3.9 11.4119M17.8647 16.3534V16.3529H17.7647L17.8647 16.3539C17.8647 16.3537 17.8647 16.3536 17.8647 16.3534ZM17.8647 16.3534V18.0176M17.8647 18.0176H27.2941C27.7189 18.0177 28.0999 18.3987 28.0999 18.8235V27.2941C28.0999 27.7189 27.7189 28.0999 27.2941 28.0999H4.70588C4.28106 28.0999 3.90004 27.7189 3.9 27.2941V11.4119M17.8647 18.0176V18.1176L17.7647 18.0176H17.8647ZM3.9 11.4119V11.4118H4L3.9 11.4119ZM26.1359 10.6059L24.2574 5.51177H17.1588V10.6059H26.1359ZM15.547 5.51177H7.08816L5.75096 10.6059H15.547V5.51177ZM16.2529 19.8321V17.8149L14.6747 18.8235L16.2529 19.8321Z" fill="#9F9F9F" stroke="#9F9F9F" stroke-width="0.2"/>
</svg>
